PathFileType	4	(X/Y/Z)	Walk7.trc
DataRate	CameraRate	NumFrames	NumMarkers	Units	OrigDataRate	OrigDataStartFrame	OrigNumFrames
200.000000	200.000000	8	60	mm	200.000000	589	829
Frame#	Times		RCAR		LTH3		RTH2		LBHD		LUA1		LWRU		RFA1		LFA1		LCAR		RTB3		LElbow		RToe		RTB2		RBHD		LElbowM		LTH2		C7		RPSI		RWRU		LWRR		RMT1		RMT5		RTB1		STRN		RLFC		RElbow		CLAV		T10		RBack		LPSI		LASI		LTH4		RLMAL		LLFC		LACR1		RUA1		LTB3		LTB4		RMMAL		LCAL		RTH3		LFHD		RElbowM		RCAL		LTB1		RACR1		RTH1		LTB2		LMMAL		RTH4		LMFC		RWRR		LMT5		RFHD		LLMAL		RASI		RTB4		LToe		LMT1		LTH1
			X1	Y1	Z1	X2	Y2	Z2	X3	Y3	Z3	X4	Y4	Z4	X5	Y5	Z5	X6	Y6	Z6	X7	Y7	Z7	X8	Y8	Z8	X9	Y9	Z9	X10	Y10	Z10	X11	Y11	Z11	X12	Y12	Z12	X13	Y13	Z13	X14	Y14	Z14	X15	Y15	Z15	X16	Y16	Z16	X17	Y17	Z17	X18	Y18	Z18	X19	Y19	Z19	X20	Y20	Z20	X21	Y21	Z21	X22	Y22	Z22	X23	Y23	Z23	X24	Y24	Z24	X25	Y25	Z25	X26	Y26	Z26	X27	Y27	Z27	X28	Y28	Z28	X29	Y29	Z29	X30	Y30	Z30	X31	Y31	Z31	X32	Y32	Z32	X33	Y33	Z33	X34	Y34	Z34	X35	Y35	Z35	X36	Y36	Z36	X37	Y37	Z37	X38	Y38	Z38	X39	Y39	Z39	X40	Y40	Z40	X41	Y41	Z41	X42	Y42	Z42	X43	Y43	Z43	X44	Y44	Z44	X45	Y45	Z45	X46	Y46	Z46	X47	Y47	Z47	X48	Y48	Z48	X49	Y49	Z49	X50	Y50	Z50	X51	Y51	Z51	X52	Y52	Z52	X53	Y53	Z53	X54	Y54	Z54	X55	Y55	Z55	X56	Y56	Z56	X57	Y57	Z57	X58	Y58	Z58	X59	Y59	Z59	X60	Y60	Z60

589	2.945	-233.17	829.77	324.37	-285.63	612.64	-153.5	-116.98	746.32	184.32	-271.02	1646.2	-76.737	-233.11	1306.6	-274.74	-120.33	887.91	-292.77	-327.18	990.64	297.49	-180.59	1008.7	-313.62	-40.283	870.42	-293.43	-150.12	218.1	121.69	-236.47	1150.9	-310.48	-45.149	50.377	166.38	-162.42	306.58	190.37	-264.56	1656	64.808	-277.48	1132.9	-246.39	-207.55	700.49	-142.98	-299.43	1519.2	-6.7386	-416.08	1032.6	39.619	-291.96	858.57	303.87	-62.314	918.93	-241.32	-85.255	51.307	133.56	-144.54	41.165	196.45	-97.549	394.91	143.46	-127.59	1254.3	-2.5525	-139.3	522.75	204.08	-346.47	1139.8	271.21	-170.54	1428.7	-0.94336	-408.26	1298.4	-15.195	-387.87	1434.1	115.01	-416.8	1031.6	-38.934	-201.9	1039.8	-135.75	-274.65	702.9	-168.97	-226.03	103.66	149.78	-306.84	509.5	-142.5	-218.81	1473.1	-169.2	-296.17	1291.6	247.43	-348.17	190.68	-60.731	-319.02	282.54	-59.841	-173.32	123.77	81.011	-481.39	33.376	-66.56	-155.07	634.99	210.18	-91.307	1686.5	-43.199	-355.89	1125.9	191.91	-271.83	71.993	88.051	-292.24	368.33	-61.601	-235.52	1463.9	159.75	-214.95	814.99	207.07	-334.01	287.58	-133.21	-395.23	91.242	-21.312	-181.99	725.87	214.76	-302.84	515.3	-12.098	-222.85	869.64	271.2	-321.41	21.077	-135.1	-88.892	1690.4	32.973	-417.47	73.162	-105.14	-206.35	1043.9	147.55	-122.35	305.72	131.42	-222.33	28.799	-60.096	-277.74	38.24	-47.887	-261.27	794.26	-183.96
590	2.95	-230.56	829.36	325.01	-283.7	612.67	-153.43	-111.8	745.97	183.92	-265.92	1645.8	-76.348	-227.28	1306.5	-274.4	-111.2	888.84	-292.22	-323.9	990.59	297.88	-172.49	1009	-313.3	-30.938	872.12	-292.84	-135.96	216.99	122.76	-229.65	1150.8	-310.38	-26.022	52.274	167.61	-150.46	305.52	191	-259.48	1655.5	65.199	-270.59	1132.5	-246.29	-204.92	699.84	-142.63	-294.18	1518.9	-6.3269	-411.19	1032.3	40.204	-289.21	858.41	304.34	-53.446	920.46	-240.79	-66.347	52.008	135.03	-124.91	40.594	198.36	-88.368	395.33	143.3	-122.54	1253.8	-2.2141	-133.05	522.41	203.66	-342.56	1139.8	271.51	-165.36	1428.3	-0.57688	-403.19	1298.1	-14.637	-382.61	1433.9	115.38	-412.02	1031.3	-38.316	-197.28	1039.3	-135.33	-271.95	702.86	-168.71	-208.39	100.58	151.81	-305.76	509.58	-142.48	-213.59	1472.8	-168.73	-291.58	1291.4	247.82	-347.84	190.72	-60.807	-318.5	282.53	-59.911	-156.69	121.8	82.607	-481.43	33.722	-66.655	-149.59	634.59	209.89	-86.233	1686.2	-42.795	-351.75	1125.9	192.23	-253.68	67.349	90.478	-291.56	368.26	-61.655	-230.23	1463.5	160.18	-210.07	814.61	207.74	-333.58	287.64	-133.26	-395.17	91.388	-21.372	-176.63	725.57	214.85	-301.61	515.32	-12.082	-219.95	869.21	271.91	-321.45	21.048	-135.14	-83.837	1690.1	33.388	-417.46	73.385	-105.19	-201.35	1043.2	148.06	-110.66	305.41	131.86	-222.4	28.78	-60.129	-277.77	38.245	-47.926	-257.81	794.12	-183.63
591	2.955	-227.88	828.94	325.67	-281.77	612.7	-153.34	-106.72	745.48	183.49	-260.81	1645.3	-75.94	-221.46	1306.3	-274.03	-102.16	889.75	-291.63	-320.54	990.52	298.31	-164.47	1009.3	-312.96	-21.686	873.8	-292.22	-121.93	216	123.81	-222.89	1150.6	-310.26	-7.064	54.376	168.72	-138.56	304.53	191.64	-254.38	1655.1	65.608	-263.76	1132	-246.15	-202.3	699.19	-142.3	-288.93	1518.6	-5.8928	-406.27	1032	40.817	-286.37	858.22	304.85	-44.66	921.96	-240.24	-47.595	52.928	136.42	-105.37	40.242	200.22	-79.337	395.73	143.1	-117.48	1253.4	-1.8558	-126.94	521.98	203.24	-338.58	1139.8	271.85	-160.16	1427.8	-0.19306	-398.1	1297.9	-14.048	-377.32	1433.7	115.79	-407.23	1031	-37.667	-192.67	1038.8	-134.91	-269.25	702.82	-168.45	-190.79	97.733	153.87	-304.68	509.66	-142.45	-208.36	1472.4	-168.24	-286.93	1291.2	248.23	-347.5	190.78	-60.877	-317.98	282.53	-59.975	-140.17	120.03	84.211	-481.49	34.083	-66.738	-144.27	634.07	209.58	-81.149	1685.8	-42.381	-347.57	1125.9	192.59	-235.57	62.985	92.961	-290.86	368.2	-61.706	-224.91	1463.2	160.63	-205.19	814.15	208.36	-333.15	287.71	-133.31	-395.11	91.544	-21.425	-171.35	725.15	214.91	-300.38	515.36	-12.054	-216.99	868.76	272.64	-321.48	21.022	-135.19	-78.766	1689.8	33.81	-417.46	73.62	-105.24	-196.33	1042.5	148.59	-99.11	305.16	132.28	-222.47	28.759	-60.166	-277.79	38.251	-47.965	-254.38	793.96	-183.29
592	2.96	-225.12	828.5	326.37	-279.83	612.73	-153.24	-101.72	744.85	183.03	-255.69	1644.8	-75.513	-215.67	1306.1	-273.64	-93.194	890.65	-291.01	-317.1	990.44	298.79	-156.52	1009.5	-312.58	-12.531	875.46	-291.59	-108.03	215.16	124.85	-216.19	1150.4	-310.11	11.689	56.674	169.69	-126.75	303.62	192.27	-249.27	1654.6	66.036	-256.99	1131.4	-245.98	-199.68	698.53	-141.97	-283.66	1518.2	-5.4361	-401.33	1031.6	41.461	-283.45	858.01	305.41	-35.96	923.45	-239.66	-29.034	54.065	137.7	-85.947	40.111	202.01	-70.46	396.13	142.88	-112.4	1252.9	-1.4786	-120.96	521.47	202.82	-334.53	1139.8	272.24	-154.95	1427.4	0.20898	-393.01	1297.6	-13.427	-372	1433.4	116.24	-402.42	1030.6	-36.986	-188.04	1038.3	-134.49	-266.57	702.78	-168.17	-173.26	95.122	155.95	-303.58	509.75	-142.41	-203.13	1472	-167.74	-282.21	1291	248.67	-347.16	190.85	-60.937	-317.45	282.53	-60.03	-123.79	118.48	85.809	-481.55	34.463	-66.805	-139.08	633.44	209.28	-76.056	1685.5	-41.955	-343.35	1125.9	192.99	-217.54	58.915	95.472	-290.15	368.14	-61.754	-219.56	1462.8	161.1	-200.29	813.59	208.93	-332.71	287.79	-133.34	-395.04	91.711	-21.469	-166.15	724.6	214.95	-299.13	515.42	-12.007	-213.97	868.28	273.4	-321.51	20.997	-135.24	-73.679	1689.4	34.243	-417.45	73.868	-105.28	-191.3	1041.7	149.16	-87.71	304.98	132.67	-222.55	28.739	-60.206	-277.81	38.257	-48.003	-250.96	793.79	-182.93
593	2.965	-222.27	828.04	327.09	-277.89	612.77	-153.13	-96.805	744.1	182.55	-250.56	1644.3	-75.064	-209.91	1305.8	-273.22	-84.318	891.54	-290.36	-313.59	990.34	299.31	-148.66	1009.8	-312.16	-3.4757	877.11	-290.93	-94.293	214.46	125.87	-209.57	1150.2	-309.93	30.198	59.156	170.53	-115.03	302.8	192.91	-244.14	1654.1	66.483	-250.27	1130.9	-245.77	-197.07	697.86	-141.65	-278.38	1517.8	-4.956	-396.36	1031.1	42.137	-280.45	857.77	306.02	-27.349	924.92	-239.07	-10.699	55.411	138.87	-66.704	40.198	203.71	-61.739	396.53	142.62	-107.31	1252.3	-1.0836	-115.12	520.89	202.4	-330.41	1139.7	272.67	-149.73	1426.9	0.62997	-387.9	1297.3	-12.776	-366.66	1433.1	116.72	-397.59	1030.3	-36.27	-183.42	1037.8	-134.07	-263.89	702.74	-167.87	-155.85	92.762	158.02	-302.45	509.85	-142.36	-197.89	1471.6	-167.21	-277.42	1290.7	249.13	-346.82	190.92	-60.986	-316.9	282.54	-60.075	-107.56	117.15	87.389	-481.6	34.862	-66.856	-134.03	632.69	208.97	-70.952	1685.1	-41.517	-339.1	1125.9	193.44	-199.63	55.151	97.984	-289.4	368.09	-61.797	-214.18	1462.4	161.58	-195.38	812.95	209.46	-332.25	287.88	-133.38	-394.97	91.89	-21.502	-161.03	723.95	214.96	-297.87	515.51	-11.937	-210.88	867.79	274.18	-321.55	20.974	-135.28	-68.575	1689	34.688	-417.44	74.13	-105.3	-186.24	1040.9	149.75	-76.475	304.87	133.05	-222.62	28.718	-60.251	-277.83	38.263	-48.04	-247.55	793.61	-182.56
594	2.97	-219.34	827.57	327.84	-275.93	612.8	-153	-91.971	743.22	182.04	-245.42	1643.8	-74.593	-204.17	1305.5	-272.77	-75.531	892.4	-289.66	-310	990.22	299.87	-140.88	1010	-311.72	5.477	878.74	-290.26	-80.738	213.91	126.85	-203.01	1149.9	-309.73	48.42	61.806	171.24	-103.44	302.06	193.53	-239	1653.6	66.952	-243.61	1130.3	-245.53	-194.46	697.18	-141.33	-273.09	1517.4	-4.4517	-391.35	1030.7	42.846	-277.37	857.51	306.69	-18.829	926.36	-238.45	7.3707	56.954	139.94	-47.689	40.498	205.32	-53.177	396.92	142.33	-102.2	1251.8	-0.67191	-109.4	520.24	201.99	-326.21	1139.7	273.14	-144.49	1426.3	1.0705	-382.79	1296.9	-12.093	-361.29	1432.8	117.24	-392.73	1029.8	-35.52	-178.79	1037.2	-133.66	-261.21	702.69	-167.57	-138.6	90.658	160.06	-301.29	509.96	-142.29	-192.65	1471.1	-166.65	-272.57	1290.4	249.62	-346.46	191.01	-61.022	-316.33	282.56	-60.108	-91.527	116.04	88.937	-481.66	35.286	-66.886	-129.09	631.85	208.68	-65.838	1684.7	-41.063	-334.8	1125.8	193.92	-181.89	51.702	100.47	-288.62	368.04	-61.832	-208.77	1461.9	162.07	-190.45	812.23	209.93	-331.78	287.99	-133.4	-394.88	92.082	-21.523	-155.99	723.19	214.94	-296.57	515.61	-11.843	-207.72	867.27	274.98	-321.58	20.953	-135.31	-63.457	1688.6	35.146	-417.43	74.409	-105.31	-181.16	1040.1	150.35	-65.418	304.83	133.4	-222.68	28.699	-60.301	-277.84	38.27	-48.074	-244.15	793.42	-182.18
595	2.975	-216.32	827.08	328.62	-273.94	612.84	-152.86	-87.209	742.24	181.52	-240.27	1643.2	-74.098	-198.45	1305.2	-272.3	-66.835	893.24	-288.94	-306.34	990.08	300.47	-133.19	1010.1	-311.24	14.324	880.34	-289.57	-67.388	213.49	127.79	-196.52	1149.6	-309.49	66.314	64.605	171.82	-91.994	301.41	194.13	-233.85	1653	67.444	-237.01	1129.8	-245.25	-191.84	696.51	-141.01	-267.8	1516.9	-3.9218	-386.31	1030.1	43.589	-274.2	857.22	307.39	-10.404	927.79	-237.81	25.134	58.68	140.9	-28.953	41.004	206.83	-44.776	397.3	142.04	-97.069	1251.2	-0.24467	-103.8	519.53	201.59	-321.94	1139.6	273.66	-139.24	1425.8	1.5311	-377.66	1296.6	-11.38	-355.9	1432.5	117.8	-387.85	1029.4	-34.733	-174.16	1036.7	-133.25	-258.53	702.63	-167.25	-121.55	88.812	162.05	-300.09	510.07	-142.2	-187.41	1470.6	-166.07	-267.65	1290.1	250.14	-346.09	191.1	-61.044	-315.74	282.58	-60.126	-75.722	115.14	90.438	-481.72	35.734	-66.893	-124.26	630.91	208.39	-60.715	1684.2	-40.595	-330.46	1125.7	194.45	-164.34	48.569	102.9	-287.81	367.99	-61.854	-203.34	1461.4	162.58	-185.51	811.42	210.37	-331.29	288.11	-133.4	-394.79	92.288	-21.529	-151	722.34	214.9	-295.23	515.74	-11.723	-204.49	866.72	275.81	-321.62	20.933	-135.34	-58.323	1688.1	35.618	-417.41	74.707	-105.31	-176.04	1039.3	150.98	-54.55	304.86	133.72	-222.75	28.682	-60.354	-277.86	38.276	-48.107	-240.75	793.23	-181.79
596	2.98	-213.22	826.56	329.43	-271.93	612.88	-152.69	-82.51	741.15	180.98	-235.12	1642.6	-73.577	-192.77	1304.8	-271.8	-58.233	894.05	-288.18	-302.59	989.91	301.12	-125.59	1010.3	-310.73	23.063	881.92	-288.85	-54.27	213.21	128.68	-190.11	1149.3	-309.23	83.835	67.53	172.28	-80.714	300.85	194.72	-228.68	1652.4	67.96	-230.47	1129.2	-244.94	-189.19	695.84	-140.7	-262.5	1516.4	-3.3652	-381.23	1029.6	44.367	-270.96	856.89	308.15	-2.0751	929.19	-237.15	42.549	60.567	141.74	-10.551	41.702	208.2	-36.537	397.68	141.73	-91.923	1250.6	0.19709	-98.307	518.76	201.21	-317.6	1139.4	274.22	-133.98	1425.2	2.0123	-372.53	1296.2	-10.635	-350.5	1432.1	118.4	-382.94	1028.9	-33.909	-169.52	1036.1	-132.85	-255.82	702.57	-166.92	-104.75	87.221	163.98	-298.83	510.18	-142.09	-182.17	1470.1	-165.47	-262.68	1289.7	250.68	-345.7	191.2	-61.051	-315.11	282.61	-60.129	-60.178	114.46	91.879	-481.78	36.211	-66.875	-119.52	629.89	208.11	-55.583	1683.7	-40.109	-326.08	1125.6	195.03	-147.05	45.751	105.25	-286.95	367.94	-61.861	-197.89	1460.9	163.11	-180.56	810.55	210.76	-330.77	288.23	-133.39	-394.67	92.509	-21.521	-146.07	721.4	214.85	-293.84	515.87	-11.579	-201.2	866.15	276.66	-321.67	20.916	-135.36	-53.177	1687.6	36.107	-417.4	75.024	-105.29	-170.89	1038.4	151.63	-43.883	304.96	134.02	-222.81	28.667	-60.413	-277.87	38.28	-48.137	-237.35	793.03	-181.39
